<svg width="69" height="69" viewBox="0 0 69 69" fill="none" xmlns="http://www.w3.org/2000/svg">
<rect width="69" height="69" fill="#3B48CC"/>
<path d="M36 55.5C36 55.88 35.79 56.21 35.47 56.38L27.57 60.82C27.41 60.94 27.21 61 27 61C26.79 61 26.59 60.94 26.43 60.82L18.53 56.38C18.21 56.21 18 55.88 18 55.5V46.5C18 46.12 18.21 45.79 18.53 45.62L26.43 41.18C26.59 41.06 26.79 41 27 41C27.21 41 27.41 41.06 27.57 41.18L35.47 45.62C35.79 45.79 36 46.12 36 46.5V55.5ZM27 43.15L21.04 46.5L27 49.85L32.96 46.5L27 43.15ZM20 54.91L26 58.29V51.58L20 48.21V54.91ZM34 54.91V48.21L28 51.58V58.29L34 54.91Z" fill="white"/>
<path d="M44 41.5C44 41.88 43.79 42.21 43.47 42.38L35.57 46.82C35.41 46.94 35.21 47 35 47C34.79 47 34.59 46.94 34.43 46.82L26.53 42.38C26.21 42.21 26 41.88 26 41.5V32.5C26 32.12 26.21 31.79 26.53 31.62L34.43 27.18C34.59 27.06 34.79 27 35 27C35.21 27 35.41 27.06 35.57 27.18L43.47 31.62C43.79 31.79 44 32.12 44 32.5V41.5ZM35 29.15L29.04 32.5L35 35.85L40.96 32.5L35 29.15ZM28 40.91L34 44.29V37.58L28 34.21V40.91ZM42 40.91V34.21L36 37.58V44.29L42 40.91Z" fill="white"/>
<path d="M52 55.5C52 55.88 51.79 56.21 51.47 56.38L43.57 60.82C43.41 60.94 43.21 61 43 61C42.79 61 42.59 60.94 42.43 60.82L34.53 56.38C34.21 56.21 34 55.88 34 55.5V46.5C34 46.12 34.21 45.79 34.53 45.62L42.43 41.18C42.59 41.06 42.79 41 43 41C43.21 41 43.41 41.06 43.57 41.18L51.47 45.62C51.79 45.79 52 46.12 52 46.5V55.5ZM43 43.15L37.04 46.5L43 49.85L48.96 46.5L43 43.15ZM36 54.91L42 58.29V51.58L36 48.21V54.91ZM50 54.91V48.21L44 51.58V58.29L50 54.91Z" fill="white"/>
<path d="M12.1557 39.6746C14.0626 41.6437 16.6489 42.75 19.3456 42.75V45C18.0531 45 14.1922 44.4537 11.3318 41.5C8.47149 38.5463 7 36.4272 7 32.25C7 24.1125 11.9527 20.8663 19.6042 20C22.7817 13.7262 27.2514 9 34.5978 9C43.8508 9 48.8969 15.97 50.6255 25C57.2348 25.4988 62 30.5 62 35C62 36.7236 61.6047 37.4076 60.966 39C60.3272 40.5924 60.1822 40.6364 59.4149 41.5C58.5723 42.4483 58.3718 42.8404 56.8298 43.5C55.2877 44.1596 54.0611 44.7938 52.3919 44.7938V42.75C54.4145 42.75 56.3542 41.9203 57.7844 40.4435C59.2146 38.9666 60.018 36.9636 60.018 34.875C60.018 32.7864 59.2146 30.7834 57.7844 29.3065C56.3542 27.8297 54.4145 27 52.3919 27H48.5789V25.6875C48.5789 21.8584 47.1059 18.1862 44.4839 15.4786C41.8619 12.7711 38.3058 11.25 34.5978 11.25C28.2427 11.25 22.8282 15.6863 21.1504 21.75H19.3456C16.6489 21.75 14.0626 22.8562 12.1557 24.8254C10.2488 26.7945 9.1775 29.4652 9.1775 32.25C9.1775 35.0348 10.2488 37.7055 12.1557 39.6746Z" fill="white"/>
</svg>
