<!DOCTYPE svg PUBLIC "-//W3C//DTD SVG 1.1//EN" "https://www.w3.org/Graphics/SVG/1.1/DTD/svg11.dtd"><svg xmlns="http://www.w3.org/2000/svg" class="sc-FNZbm xydpK graph" data-testid="graph" width="449" height="665"><g transform="translate(12,12)" class="new-look-graph"><g class="nodes"><g class="node-container" transform="translate(227.5,22)"><g><circle class="sc-kfPtPH cJssHP shape" r="22"/><text class="sc-dlVyqM cDNlyh label"><tspan xml:space="preserve" text-anchor="middle" alignment-baseline="central">Start</tspan></text></g></g><g class="node-container" transform="translate(227.5,103.5)"><g class="sc-bkkfTU bXNcFD node state Task" data-testid="graph-TarDecompressTask" data-state-id="TarDecompressTask" data-state-type="Task"><g class="new-look-state-node "><rect x="-120" y="-24.5" width="240" height="49" rx="3" ry="3"/><g class="handle" transform="translate(-120,-24.5)"><path d="M5,16 L5,34 M8,16 L8,34"/></g><g class="icon" transform="translate(-104,-24)"><rect fill="var(--color-background-container-header-2Hjv9p, #fafafa)" x="0.0361026108" y="0.0181291967" width="48" height="48"/><line x1="47.5" y1="0.49122807" x2="47.5" y2="47.5" stroke="var(--color-text-home-header-secondary-1Ph38f, #d5dbdb)" stroke-linecap="square"/><line x1="0.5" y1="0.49122807" x2="0.5" y2="47.5" stroke="var(--color-text-home-header-secondary-1Ph38f, #d5dbdb)" stroke-linecap="square"/><use href="#icon-service-lam"/></g><g class="text-lines" transform="translate(-48,-24.5)"><text transform="translate(0,17)" class="line1"><tspan xml:space="preserve" text-anchor="start">Lambda: Invoke</tspan></text><text transform="translate(0,35.5)" class="line2 label"><tspan xml:space="preserve" text-anchor="start">TarDecompressTask</tspan></text></g></g></g></g><g class="node-container" transform="translate(140,270)"><g class="sc-bkkfTU bXNcFD node state container Map" data-state-id="AllFilesProcess" data-state-type="Map"><g class="new-look-state-node "><g class="bounding-box" transform="translate(0,5)"><rect class="sc-giYgFv deECce shape" rx="7" ry="7" x="-140" y="-107" width="280" height="209"/><g class="content" transform="translate(-140,-107)"><g class="branch" transform="translate(20,89)"><g transform=""><g class="nodes"><g class="node-container" transform="translate(120,24.5)"><g class="sc-bkkfTU bXNcFD node state Task" data-testid="graph-FileProcessTask" data-state-id="FileProcessTask" data-state-type="Task"><g class="new-look-state-node "><rect x="-120" y="-24.5" width="240" height="49" rx="3" ry="3"/><g class="handle" transform="translate(-120,-24.5)"><path d="M5,16 L5,34 M8,16 L8,34"/></g><g class="icon" transform="translate(-104,-24)"><rect fill="var(--color-background-container-header-2Hjv9p, #fafafa)" x="0.0361026108" y="0.0181291967" width="48" height="48"/><line x1="47.5" y1="0.49122807" x2="47.5" y2="47.5" stroke="var(--color-text-home-header-secondary-1Ph38f, #d5dbdb)" stroke-linecap="square"/><line x1="0.5" y1="0.49122807" x2="0.5" y2="47.5" stroke="var(--color-text-home-header-secondary-1Ph38f, #d5dbdb)" stroke-linecap="square"/><use href="#icon-service-lam"/></g><g class="text-lines" transform="translate(-48,-24.5)"><text transform="translate(0,17)" class="line1"><tspan xml:space="preserve" text-anchor="start">Lambda: Invoke</tspan></text><text transform="translate(0,35.5)" class="line2 label"><tspan xml:space="preserve" text-anchor="start">FileProcessTask</tspan></text></g></g></g></g><g class="node-container" transform="translate(120,92)"><g><circle class="sc-fKVsgm eREiWo shape" r="8"/></g></g></g><g class="edges"><g class="sc-ieebsP fjpJNi edge"><path id="state-FileProcessTask:end:normal" d="M120,49L120,51.916666666666664C120,54.833333333333336,120,60.666666666666664,120,66.5C120,72.33333333333333,120,78.16666666666667,120,81.08333333333333L120,84" marker-end="url(#arrowhead)" fill="none"/></g></g></g></g><g class="sc-ieebsP fjpJNi"><path id="AllFilesProcess-FileProcessTask" class="path starting-connection" d="M140,44L140,47.75C140,51.5,140,59,140,62.75C140,66.5,140,66.5,140,70.25C140,74,140,81.5,140,85.25L140,89" fill="none"/></g></g></g><g class="new-look-state-node "><rect x="-120" y="-107" width="240" height="49" rx="3" ry="3"/><g class="handle" transform="translate(-120,-107)"><path d="M5,16 L5,34 M8,16 L8,34"/></g><g class="icon" transform="translate(-104,-106.5)"><rect fill="var(--color-background-container-header-2Hjv9p, #fafafa)" x="0.0361026108" y="0.0181291967" width="48" height="48"/><line x1="47.5" y1="0.49122807" x2="47.5" y2="47.5" stroke="var(--color-text-home-header-secondary-1Ph38f, #d5dbdb)" stroke-linecap="square"/><line x1="0.5" y1="0.49122807" x2="0.5" y2="47.5" stroke="var(--color-text-home-header-secondary-1Ph38f, #d5dbdb)" stroke-linecap="square"/><use href="#icon-flow-map"/></g><g class="text-lines" transform="translate(-48,-107)"><text transform="translate(0,17)" class="line1"><tspan xml:space="preserve" text-anchor="start">Map state</tspan></text><text transform="translate(0,35.5)" class="line2 label"><tspan xml:space="preserve" text-anchor="start">AllFilesProcess</tspan></text></g></g></g></g></g><g class="node-container" transform="translate(305,453)"><g class="sc-bkkfTU bXNcFD node state Task" data-testid="graph-ErrorNotice" data-state-id="ErrorNotice" data-state-type="Task"><g class="new-look-state-node "><rect x="-120" y="-24.5" width="240" height="49" rx="3" ry="3"/><g class="handle" transform="translate(-120,-24.5)"><path d="M5,16 L5,34 M8,16 L8,34"/></g><g class="icon" transform="translate(-104,-24)"><rect fill="var(--color-background-container-header-2Hjv9p, #fafafa)" x="0.0361026108" y="0.0181291967" width="48" height="48"/><line x1="47.5" y1="0.49122807" x2="47.5" y2="47.5" stroke="var(--color-text-home-header-secondary-1Ph38f, #d5dbdb)" stroke-linecap="square"/><line x1="0.5" y1="0.49122807" x2="0.5" y2="47.5" stroke="var(--color-text-home-header-secondary-1Ph38f, #d5dbdb)" stroke-linecap="square"/><use href="#icon-service-sns"/></g><g class="text-lines" transform="translate(-48,-24.5)"><text transform="translate(0,17)" class="line1"><tspan xml:space="preserve" text-anchor="start">SNS: Publish</tspan></text><text transform="translate(0,35.5)" class="line2 label"><tspan xml:space="preserve" text-anchor="start">ErrorNotice</tspan></text></g></g></g></g><g class="node-container" transform="translate(227.5,618.5)"><g><circle class="sc-kfPtPH cJssHP shape" r="22"/><text class="sc-dlVyqM cDNlyh label"><tspan xml:space="preserve" text-anchor="middle" alignment-baseline="central">End</tspan></text></g></g><g class="node-container" transform="translate(305,537)"><g class="sc-bkkfTU bXNcFD node state Fail" data-testid="graph-ErrorEnd" data-state-id="ErrorEnd" data-state-type="Fail"><g class="new-look-state-node "><rect x="-120" y="-24.5" width="240" height="49" rx="3" ry="3"/><g class="handle" transform="translate(-120,-24.5)"><path d="M5,16 L5,34 M8,16 L8,34"/></g><g class="icon" transform="translate(-104,-24)"><rect fill="var(--color-background-container-header-2Hjv9p, #fafafa)" x="0.0361026108" y="0.0181291967" width="48" height="48"/><line x1="47.5" y1="0.49122807" x2="47.5" y2="47.5" stroke="var(--color-text-home-header-secondary-1Ph38f, #d5dbdb)" stroke-linecap="square"/><line x1="0.5" y1="0.49122807" x2="0.5" y2="47.5" stroke="var(--color-text-home-header-secondary-1Ph38f, #d5dbdb)" stroke-linecap="square"/><use href="#icon-flow-fail"/></g><g class="text-lines" transform="translate(-48,-24.5)"><text transform="translate(0,17)" class="line1"><tspan xml:space="preserve" text-anchor="start">Fail state</tspan></text><text transform="translate(0,35.5)" class="line2 label"><tspan xml:space="preserve" text-anchor="start">ErrorEnd</tspan></text></g></g></g></g></g><g class="edges"><g class="sc-ieebsP fjpJNi edge"><path id="state-TarDecompressTask:state-AllFilesProcess:normal" d="M176.45833333333334,128L170.38194444444446,130.91666666666666C164.30555555555557,133.83333333333334,152.1527777777778,139.66666666666666,146.07638888888889,145.5C140,151.33333333333334,140,157.16666666666666,140,160.08333333333334L140,163" marker-end="url(#arrowhead)" fill="none"/></g><g class="sc-ieebsP fjpJNi edge"><path id="state-TarDecompressTask:state-ErrorNotice:catch:0" d="M296.0416666666667,128L304.2013888888889,130.91666666666666C312.36111111111114,133.83333333333334,328.6805555555556,139.66666666666666,336.84027777777777,163.33333333333334C345,187,345,228.5,345,271.375C345,314.25,345,358.5,341.5837479270315,384.9166666666667C338.167495854063,411.3333333333333,331.33499170812604,419.9166666666667,327.9187396351576,424.2083333333333L324.50248756218906,428.5" marker-end="url(#arrowhead)" fill="none"/><g data-testid="graph-TarDecompressTask-0" class="edge-label" transform="translate(336.84027777777777,163.33333333333334)"><rect x="-25" y="-8.25" width="50" height="16.5" class="sc-bBHwJV hDsuPB"/><text class="sc-iwjezw fEQOki label"><tspan xml:space="preserve" text-anchor="middle" alignment-baseline="central">Catch #1</tspan><title>Catch #1</title></text></g></g><g class="sc-ieebsP fjpJNi edge"><path id="start:state-TarDecompressTask" d="M227.5,44L227.5,46.916666666666664C227.5,49.833333333333336,227.5,55.666666666666664,227.5,61.5C227.5,67.33333333333333,227.5,73.16666666666667,227.5,76.08333333333333L227.5,79" marker-end="url(#arrowhead)" fill="none"/></g><g class="sc-ieebsP fjpJNi edge"><path id="state-AllFilesProcess:end:normal" d="M127.909604519774,377L127.42467043314501,381.2916666666667C126.939736346516,385.5833333333333,125.969868173258,394.1666666666667,125.484934086629,406.8333333333333C125,419.5,125,436.25,125,451.625C125,467,125,481,125,495C125,509,125,523,125,537C125,551,125,565,138.66192713982448,577.2648402148592C152.32385427964894,589.5296804297184,179.6477085592979,600.0593608594368,193.30963569912237,605.324201074296L206.97156283894685,610.5890412891551" marker-end="url(#arrowhead)" fill="none"/></g><g class="sc-ieebsP fjpJNi edge"><path id="state-AllFilesProcess:state-ErrorNotice:catch:0" d="M202.46704331450093,377L204.97253609541744,381.2916666666667C207.47802887633395,385.5833333333333,212.48901443816695,394.1666666666667,222.46755862870205,402.75C232.44610281923715,411.3333333333333,247.39220563847428,419.9166666666667,254.86525704809287,424.2083333333333L262.33830845771143,428.5" marker-end="url(#arrowhead)" fill="none"/><g data-testid="graph-AllFilesProcess-0" class="edge-label" transform="translate(222.46755862870205,402.75)"><rect x="-25" y="-8.25" width="50" height="16.5" class="sc-bBHwJV hDsuPB"/><text class="sc-iwjezw fEQOki label"><tspan xml:space="preserve" text-anchor="middle" alignment-baseline="central">Catch #1</tspan><title>Catch #1</title></text></g></g><g class="sc-ieebsP fjpJNi edge"><path id="state-ErrorNotice:state-ErrorEnd:normal" d="M305,477.5L305,480.4166666666667C305,483.3333333333333,305,489.1666666666667,305,495C305,500.8333333333333,305,506.6666666666667,305,509.5833333333333L305,512.5" marker-end="url(#arrowhead)" fill="none"/></g><g class="sc-ieebsP fjpJNi edge"><path id="state-ErrorEnd:end:normal" d="M305,561.5L305,564.4166666666666C305,567.3333333333334,305,573.1666666666666,295.3501564098419,581.001640711543C285.7003128196838,588.8366147564193,266.40062563936755,598.6732295128385,256.7507820492095,603.5915368910481L247.10093845905132,608.5098442692578" marker-end="url(#arrowhead)" fill="none"/></g></g><defs><marker id="arrowhead" markerWidth="8" markerHeight="6" refX="7" refY="3" orient="auto" class="sc-hGPAah CoLgZ"><polygon points="0 0, 8 3, 0 6"/></marker><marker id="highlighted-arrowhead" markerWidth="6" markerHeight="4" refX="5" refY="2" orient="auto" class="sc-hGPAah CoLgZ"><polygon points="0 0, 6 2, 0 4"/></marker><marker id="error-arrowhead" markerWidth="6" markerHeight="4" refX="5" refY="2" orient="auto" class="sc-hGPAah CoLgZ"><polygon points="0 0, 6 2, 0 4"/></marker><marker id="large-arrowhead" markerWidth="10" markerHeight="8" refX="9" refY="4" orient="auto" class="sc-hGPAah CoLgZ"><polygon points="0 0, 10 4, 0 8"/></marker><marker id="large-highlighted-arrowhead" markerWidth="5.5" markerHeight="4" refX="4.5" refY="2" orient="auto" class="sc-hGPAah CoLgZ"><polygon points="0 0, 5.5 2, 0 4"/></marker><marker id="large-error-arrowhead" markerWidth="10" markerHeight="8" refX="9" refY="4" orient="auto" class="sc-hGPAah CoLgZ"><polygon points="0 0, 10 4, 0 8"/></marker><linearGradient x1="0%" y1="100%" x2="100%" y2="0%" id="gradient-orange"><stop stop-color="#C8511B" offset="0%"/><stop stop-color="#FF9900" offset="100%"/></linearGradient><linearGradient x1="0%" y1="100%" x2="100%" y2="0%" id="gradient-turquoise"><stop stop-color="#055F4E" offset="0%"/><stop stop-color="#56C0A7" offset="100%"/></linearGradient><linearGradient x1="0%" y1="100%" x2="100%" y2="0%" id="gradient-blue"><stop stop-color="#2E27AD" offset="0%"/><stop stop-color="#527FFF" offset="100%"/></linearGradient><linearGradient x1="0%" y1="100%" x2="100%" y2="0%" id="gradient-pink"><stop stop-color="#B0084D" offset="0%"/><stop stop-color="#FF4F8B" offset="100%"/></linearGradient><linearGradient x1="0%" y1="100%" x2="100%" y2="0%" id="gradient-red"><stop stop-color="#BD0816" offset="0%"/><stop stop-color="#FF5252" offset="100%"/></linearGradient><linearGradient x1="0%" y1="100%" x2="100%" y2="0%" id="gradient-green"><stop stop-color="#1B660F" offset="0%"/><stop stop-color="#6CAE3E" offset="100%"/></linearGradient><linearGradient x1="0%" y1="100%" x2="100%" y2="0%" id="gradient-purple"><stop stop-color="#4D27A8" offset="0%"/><stop stop-color="#A166FF" offset="100%"/></linearGradient><linearGradient x1="0%" y1="100%" x2="100%" y2="0%" id="gradient-grey"><stop stop-color="#DCDCDC" offset="0%"/><stop stop-color="#F6F5F7" offset="100%"/></linearGradient>,<linearGradient x1="0%" y1="100%" x2="100%" y2="0%" id="gradient-ag"><stop stop-color="#BC1356" offset="0%"/><stop stop-color="#F34482" offset="100%"/></linearGradient><linearGradient x1="0%" y1="100%" x2="100%" y2="0%" id="gradient-athena"><stop stop-color="#5930B5" offset="0%"/><stop stop-color="#945DF2" offset="100%"/></linearGradient><linearGradient x1="0%" y1="100%" x2="100%" y2="0%" id="gradient-emr"><stop stop-color="#5930B5" offset="0%"/><stop stop-color="#945DF2" offset="100%"/></linearGradient><linearGradient x1="0%" y1="100%" x2="100%" y2="0%" id="gradient-glue"><stop stop-color="#5930B5" offset="0%"/><stop stop-color="#945DF2" offset="100%"/></linearGradient><linearGradient x1="0%" y1="100%" x2="100%" y2="0%" id="gradient-sns"><stop stop-color="#BC1356" offset="0%"/><stop stop-color="#F34482" offset="100%"/></linearGradient><linearGradient x1="0%" y1="100%" x2="100%" y2="0%" id="gradient-states"><stop stop-color="#BC1356" offset="0%"/><stop stop-color="#F34482" offset="100%"/></linearGradient><linearGradient x1="0%" y1="100%" x2="100%" y2="0%" id="gradient-generic"><stop stop-color="#ccc" offset="0%"/><stop stop-color="#ddd" offset="100%"/></linearGradient><g stroke="none" stroke-width="1" fill="none" fill-rule="evenodd" id="icon-flow-map"><g transform="translate(7.250000, 12.250000)" fill="#0073BB" fill-rule="nonzero"><path d="M18.75,6.75 C19.3022847,6.75 19.75,7.19771525 19.75,7.75 L19.75,10.75 C19.75,11.3022847 19.3022847,11.75 18.75,11.75 L17,11.75 L17,14.75 L18.75,14.75 C19.3022847,14.75 19.75,15.1977153 19.75,15.75 L19.75,18.75 C19.75,19.3022847 19.3022847,19.75 18.75,19.75 L13.75,19.75 C13.1977153,19.75 12.75,19.3022847 12.75,18.75 L12.75,15.75 C12.75,15.1977153 13.1977153,14.75 13.75,14.75 L15.5,14.75 L15.5,11.75 L13.75,11.75 C13.1977153,11.75 12.75,11.3022847 12.75,10.75 L12.75,7.75 C12.75,7.19771525 13.1977153,6.75 13.75,6.75 L18.75,6.75 Z M18.25,16.25 L14.25,16.25 L14.25,18.25 L18.25,18.25 L18.25,16.25 Z M18.25,8.25 L14.25,8.25 L14.25,10.25 L18.25,10.25 L18.25,8.25 Z"/><path d="M4.36774058,12.9781551 L4.25581637,12.9873783 L4.25581637,12.9873783 L4.16664164,12.9827819 L4.16664164,12.9827819 L4.09909543,12.9721471 L4.09909543,12.9721471 L4.01772926,12.9506961 L4.01772926,12.9506961 L3.9143938,12.9083506 L3.9143938,12.9083506 L3.84086306,12.8661585 L3.84086306,12.8661585 L3.80378835,12.840349 L3.80378835,12.840349 L3.71966991,12.7677308 L0.219669914,9.26773081 C-0.0732233047,8.97483759 -0.0732233047,8.49996385 0.219669914,8.20707064 C0.485936477,7.94080407 0.902600159,7.91659802 1.19621165,8.13445248 L1.28033009,8.20707064 L3.5,10.427 L3.5,5.75 C3.5,2.64821472 5.95601719,0.120062989 9.02944429,0.00415208345 L9.25,-4.97379915e-14 L24.25,-4.97379915e-14 C27.3101239,-4.97379915e-14 29.8183331,2.39279152 29.9905671,5.41800288 L29.9990775,5.65628924 L30,7.75 C30,8.16421356 29.6642136,8.5 29.25,8.5 C28.8357864,8.5 28.5,8.16421356 28.5,7.75 L28.4992379,5.66855413 C28.4572345,3.42607261 26.6797069,1.6129038 24.4594105,1.50507399 L24.25,1.5 L9.25,1.5 C6.97182541,1.5 5.11231326,3.29250701 5.00490093,5.54408366 L5,5.75 L5,10.426 L7.21966991,8.20707064 L7.30378835,8.13445248 C7.59739984,7.91659802 8.01406352,7.94080407 8.28033009,8.20707064 C8.54659665,8.4733372 8.5708027,8.89000088 8.35294824,9.18361237 L8.28033009,9.26773081 L4.78033009,12.7677308 C4.74270234,12.8053586 4.70207113,12.8381523 4.65920816,12.866112 L4.58539483,12.9084563 L4.58539483,12.9084563 L4.50825575,12.9417254 L4.50825575,12.9417254 L4.44163507,12.9626313 L4.44163507,12.9626313 L4.36774058,12.9781551 L4.36774058,12.9781551 Z"/><path d="M29.1567308,12.467303 L29.2441836,12.4615381 L29.2441836,12.4615381 L29.3612017,12.4697569 L29.3612017,12.4697569 L29.4099419,12.4786795 L29.4099419,12.4786795 L29.4761141,12.4962504 L29.4761141,12.4962504 L29.5349097,12.5175276 L29.5349097,12.5175276 L29.6051875,12.5507277 L29.6051875,12.5507277 L29.6962117,12.6085674 L29.6962117,12.6085674 L29.7803301,12.6811856 L33.2803301,16.1811856 C33.5732233,16.4740788 33.5732233,16.9489525 33.2803301,17.2418457 C33.0140635,17.5081123 32.5973998,17.5323184 32.3037883,17.3144639 L32.2196699,17.2418457 L30,15.0225381 L30,19.75 C30,22.8517853 27.5439828,25.379937 24.4705557,25.4958479 L24.25,25.5 L9.25,25.5 C6.22364937,25.5 3.73212863,23.1580245 3.51530256,20.1724864 L3.50299507,19.9226196 L3.5,17.75 C3.5,17.3357864 3.83578644,17 4.25,17 C4.62969577,17 4.94349096,17.2821539 4.99315338,17.6482294 L5,17.75 L5.00247606,19.8966995 C5.07738217,22.1119658 6.84520232,23.8893416 9.04275865,23.9950272 L9.25,24 L24.25,24 C26.5281746,24 28.3876867,22.207493 28.4950991,19.9559163 L28.5,19.75 L28.5,15.0215381 L26.2803301,17.2418457 L26.1962117,17.3144639 C25.9026002,17.5323184 25.4859365,17.5081123 25.2196699,17.2418457 C24.9534034,16.9755792 24.9291973,16.5589155 25.1470518,16.265304 L25.2196699,16.1811856 L28.7196699,12.6811856 L28.7969693,12.6136874 L28.7969693,12.6136874 L28.8948226,12.5507257 L28.8948226,12.5507257 L28.96499,12.5175687 L28.96499,12.5175687 L29.0426978,12.4905912 L29.0426978,12.4905912 L29.0900352,12.4786762 L29.0900352,12.4786762 L29.1567308,12.467303 L29.1567308,12.467303 Z"/></g></g><g stroke="none" stroke-width="1" fill="none" fill-rule="evenodd" id="icon-flow-fail"><g transform="translate(11.250000, 12.250000)" fill="#D13212" fill-rule="nonzero"><path d="M12.75,0 C5.70836944,0 0,5.70836944 0,12.75 C0,19.7916306 5.70836944,25.5 12.75,25.5 C19.7916306,25.5 25.5,19.7916306 25.5,12.75 C25.5,5.70836944 19.7916306,0 12.75,0 Z M12.75,1.5 C18.9632034,1.5 24,6.53679656 24,12.75 C24,18.9632034 18.9632034,24 12.75,24 C6.53679656,24 1.5,18.9632034 1.5,12.75 C1.5,6.53679656 6.53679656,1.5 12.75,1.5 Z"/><path d="M16.5831403,8.21116377 C16.8767518,7.99330931 17.2934155,8.01751536 17.559682,8.28378193 C17.8259486,8.55004849 17.8501547,8.96671217 17.6323002,9.26032366 L17.559682,9.3444421 L13.622464,13.282112 L17.559682,17.2196699 C17.8525753,17.5125631 17.8525753,17.9874369 17.559682,18.2803301 C17.2934155,18.5465966 16.8767518,18.5708027 16.5831403,18.3529482 L16.4990219,18.2803301 L12.561464,14.343112 L8.62379406,18.2803301 L8.53967563,18.3529482 C8.24606413,18.5708027 7.82940045,18.5465966 7.56313389,18.2803301 C7.29686733,18.0140635 7.27266128,17.5973998 7.49051574,17.3037883 L7.56313389,17.2196699 L11.500464,13.282112 L7.56313389,9.3444421 C7.27024067,9.05154888 7.27024067,8.57667514 7.56313389,8.28378193 C7.82940045,8.01751536 8.24606413,7.99330931 8.53967563,8.21116377 L8.62379406,8.28378193 L12.561464,12.221112 L16.4990219,8.28378193 L16.5831403,8.21116377 Z"/></g></g><g stroke="none" stroke-width="1" fill="none" fill-rule="evenodd" id="icon-service-lam"><polygon fill="url(#gradient-orange)" fill-rule="nonzero" points="0 0 48 0 48 48 0 48"/><g transform="translate(11, 10)" fill="#FFFFFF"><path d="M26.5889213,27.8937088 L19.6925948,27.8937088 C19.4772752,27.8931074 19.2813916,27.7706914 19.1888047,27.578869 L9.43766764,7.45673404 L5.31218659,7.45673404 C5.00303594,7.45673404 4.75241983,7.20943823 4.75241983,6.90438337 L4.75241983,0.828526005 C4.75241983,0.523471153 5.00303594,0.276175335 5.31218659,0.276175335 L13.9325948,0.276175335 C14.1479143,0.276776788 14.3437979,0.399192787 14.4363848,0.591015217 L24.1427405,20.7131501 L26.5889213,20.7131501 C26.8980719,20.7131501 27.148688,20.9604459 27.148688,21.2655008 L27.148688,27.3413582 C27.148688,27.646413 26.8980719,27.8937088 26.5889213,27.8937088 Z M20.0452478,26.7890075 L26.0291545,26.7890075 L26.0291545,21.8178515 L23.7900875,21.8178515 C23.5747679,21.81725 23.3788843,21.694834 23.2862974,21.5030116 L13.5799417,1.38087667 L5.87755102,1.38087667 L5.87755102,6.3520327 L9.79591837,6.3520327 C10.0112379,6.35263416 10.2071215,6.47505016 10.2997085,6.66687259 L20.0452478,26.7890075 Z"/><path d="M8.10542274,27.8937099 L0.82845481,27.8937099 C0.635054571,27.8940907 0.455155006,27.7959347 0.352653061,27.634104 C0.243858391,27.4681848 0.233185428,27.2575536 0.324664723,27.0817533 L7.93749271,11.3894708 C8.03007964,11.1976484 8.22596323,11.0752324 8.4412828,11.0746298 L8.4412828,11.0746298 C8.65533487,11.0742082 8.85089022,11.1942751 8.94507289,11.3839473 L12.5891545,18.7799228 C12.6634688,18.931712 12.6634688,19.1086786 12.5891545,19.2604679 L8.6148105,27.5457279 C8.53147526,27.7523199 8.33072312,27.8894609 8.10542274,27.8937099 L8.10542274,27.8937099 Z M1.72408163,26.7890075 L7.75276968,26.7890075 L11.4640233,19.0560981 L8.44688047,12.8973881 L1.72408163,26.7890075 Z"/></g></g><g stroke="none" stroke-width="1" fill="none" fill-rule="evenodd" id="icon-service-sns"><polygon fill="url(#gradient-sns)" fill-rule="nonzero" points="0 0 48 0 48 48 0 48"/><g transform="translate(6.857143, 8.571429)" fill="#FFFFFF"><path d="M27.7901299,23.6384416 L27.7901299,24.1558442 C27.7901299,24.0935065 27.7901299,24.0311688 27.7901299,23.9688312 C27.7775636,23.8590598 27.7775636,23.748213 27.7901299,23.6384416 L27.7901299,23.6384416 Z"/><path d="M19.6051948,11.2207792 L19.5428571,11.3392208 C19.5678154,11.3007712 19.5867361,11.258725 19.598961,11.2145455 L19.6051948,11.2207792 Z"/><path d="M14.2005195,9.05757391 C13.6457143,9.05757391 8.74597403,9.01402597 8.74597403,10.8654545 C8.7438301,10.9827418 8.76501986,11.0992855 8.80831169,11.2083117 C8.82653378,11.2531204 8.84734819,11.2968307 8.87064935,11.3392208 L12.2618182,18.8197403 L12.2618182,22.6909091 C12.2618182,23.0836364 12.4238961,23.3142857 12.7667532,23.3142857 L12.9288312,23.3142857 C13.7125247,23.1091801 14.440768,22.7322822 15.0607792,22.2109091 L15.4784416,21.9179221 C15.6592098,21.8049511 15.7697195,21.6074445 15.7714286,21.3942857 L15.7714286,18.8384416 L19.5428571,11.3579221 L19.5428571,11.3579221 C19.5678154,11.3194725 19.5867361,11.2774263 19.598961,11.2332468 C19.6422529,11.1242205 19.6634426,11.0076769 19.6612987,10.8903896 C19.6612987,9.01402597 14.7615584,9.05757391 14.2005195,9.05757391 Z M14.2005195,10.2046753 C16.401039,10.2046753 17.8161039,10.5911688 18.2898701,10.8654545 C17.8161039,11.1397403 16.4197403,11.5262338 14.2005195,11.5262338 C11.9812987,11.5262338 10.5911688,11.1397403 10.1174026,10.8654545 C10.5974026,10.5974026 12,10.2046753 14.2005195,10.2046753 Z M14.6555844,18.3085714 C14.6555844,18.3958442 14.6555844,18.5516883 14.6555844,18.7137662 L14.6555844,21.1511688 L14.4124675,21.3007792 C14.0571429,21.5064935 13.7454545,21.6498701 13.3901299,21.8368831 L13.3901299,18.7012987 C13.3886333,18.6158595 13.3717396,18.5313906 13.3402597,18.4519481 L10.6846753,12.3802597 C11.8389408,12.6374106 13.0179565,12.7670187 14.2005195,12.7667532 C15.348723,12.7658697 16.4936743,12.6446888 17.6166234,12.4051948 L14.6555844,18.3085714 Z"/><path d="M25.5584416,26.2877922 C23.1182592,28.0539489 20.1800425,28.9991553 17.1677922,28.987013 C10.3854545,28.987013 4.60051948,24.5797403 3.24155844,18.0779221 C4.49932636,18.0180834 5.56391168,17.129231 5.84727273,15.9023377 L9.02649351,15.9023377 L9.02649351,14.7241558 L5.85974026,14.7241558 C5.6123242,13.4628894 4.53770095,12.5322348 3.25402597,12.4675325 C4.38212696,7.89245649 7.68622619,4.16375023 12.0923456,2.49340779 C16.498465,0.823065355 21.4440467,1.42435019 25.3215584,4.10181818 L26.0322078,3.11688312 C21.7378924,0.149676116 16.24326,-0.470649087 11.3954912,1.46444787 C6.54772241,3.39954482 2.99061722,7.63307653 1.92,12.7418182 C0.932896899,13.199098 0.301171353,14.1879667 0.301171353,15.2758442 C0.301171353,16.3637216 0.932896899,17.3525903 1.92,17.8098701 C3.41748481,25.0404909 9.78373505,30.2277095 17.1677922,30.2337964 C20.4315682,30.2402168 23.6134536,29.2123238 26.2566234,27.2976623 L25.5584416,26.2877922 Z M1.55844156,15.2727273 C1.55271604,14.4800639 2.14291159,13.8093871 2.92987013,13.7142732 L3.11688312,13.7142732 C3.74777503,13.7117621 4.31794978,14.08986 4.56113229,14.6720054 C4.8043148,15.2541508 4.67252426,15.9254842 4.22730765,16.3724888 C3.78209103,16.8194934 3.11129125,16.9539736 2.52817587,16.7131263 C1.94506049,16.472279 1.56468037,15.9036242 1.56467532,15.2727273 L1.55844156,15.2727273 Z"/><path d="M3.02961039,13.7142857 L2.9361039,13.7142857 L3.02961039,13.7142857 Z"/><path d="M31.1688312,18.0779221 C32.6428447,18.078856 33.8661509,16.9388268 33.9689704,15.4684034 C34.0717898,13.99798 33.0190455,12.6987979 31.5592463,12.4945848 C30.0994471,12.2903718 28.7306038,13.2507951 28.425974,14.692987 L25.1844156,14.692987 L25.1844156,6.98181818 L26.8675325,6.98181818 C27.0563221,8.42101044 28.3118379,9.47848632 29.7621759,9.4198723 C31.2125139,9.36125828 32.3786008,8.20591564 32.4506373,6.75618235 C32.5226737,5.30644905 31.4768647,4.04119855 30.0394816,3.83909528 C28.6020985,3.63699201 27.2479353,4.56479439 26.9174026,5.97818182 L24.6233766,5.94701299 C24.46336,5.91295115 24.296661,5.95657638 24.173843,6.06465628 C24.0510249,6.17273618 23.9865594,6.33253568 24,6.49558442 L24,14.6742857 L19.2062338,14.6742857 L19.2062338,15.8275325 L24,15.8275325 L24,23.9812987 C24,24.3255801 24.2790952,24.6046753 24.6233766,24.6046753 L26.5807792,24.6046753 C26.8643557,26.0184294 28.1735338,26.9869377 29.6083906,26.8444521 C31.0432474,26.7019665 32.1363845,25.4949011 32.1363845,24.052987 C32.1363845,22.6110729 31.0432474,21.4040075 29.6083906,21.2615219 C28.1735338,21.1190363 26.8643557,22.0875446 26.5807792,23.5012987 L25.2218182,23.5012987 L25.1906494,15.8212987 L28.425974,15.8212987 C28.689181,17.1289264 29.8349914,18.0716159 31.1688312,18.0779221 Z M31.1688312,13.7142857 C32.0295347,13.7142857 32.7272727,14.4120238 32.7272727,15.2727273 C32.7272727,16.1334308 32.0295347,16.8311688 31.1688312,16.8311688 C30.3081277,16.8311688 29.6103896,16.1334308 29.6103896,15.2727273 C29.6103896,14.4120238 30.3081277,13.7142857 31.1688312,13.7142857 Z M29.6103896,5.04311688 C30.2387555,5.04566069 30.8035988,5.42680178 31.0411357,6.00854606 C31.2786727,6.59029034 31.1420368,7.25785835 30.6950374,7.69949371 C30.2480381,8.14112907 29.5788693,8.26969613 29.0000349,8.02515366 C28.4212006,7.7806112 28.046906,7.21120799 28.0519481,6.58285714 C28.0519347,6.16901677 28.2171807,5.77230541 28.5109782,5.48084892 C28.8047757,5.18939244 29.2027964,5.02732533 29.6166234,5.03064935 L29.6103896,5.04311688 Z M29.2987013,22.4415439 C30.1351427,22.4379775 30.8252457,23.0953453 30.8622859,23.9309738 C30.8993261,24.7666023 30.2700924,25.4824511 29.4366146,25.5528913 C28.6031369,25.6233315 27.8626884,25.0232393 27.7589582,24.1932468 L27.7589582,24.1932468 C27.7589582,24.1309091 27.7589582,24.0685714 27.7589582,24.0062338 C27.7587404,23.8950352 27.7712901,23.7841792 27.7963636,23.6758442 L27.7963636,23.6758442 C27.9497157,22.9654386 28.5720416,22.4541501 29.2987013,22.4415439 L29.2987013,22.4415439 Z"/></g></g></defs></g><style data-styled="true" data-styled-version="5.2.3">.bXNcFD{cursor:pointer;}/*!sc*/
data-styled.g21[id="sc-bkkfTU"]{content:"bXNcFD,"}/*!sc*/
.fjpJNi{stroke:#555;background-color:#555;stroke-width:1px;}/*!sc*/
data-styled.g22[id="sc-ieebsP"]{content:"fjpJNi,"}/*!sc*/
.CoLgZ{fill:var(--color-text-form-secondary-2zuvDp,#687078);}/*!sc*/
data-styled.g24[id="sc-hGPAah"]{content:"CoLgZ,"}/*!sc*/
.cDNlyh{font-weight:400;font-size:12px;line-height:16px;font-family:Amazon Ember,Arial,Roboto,Arial,sans-serif;text-shadow:none;fill:var(--color-text-body-default-fgLpHn,#16191f);}/*!sc*/
data-styled.g25[id="sc-dlVyqM"]{content:"cDNlyh,"}/*!sc*/
.cJssHP{fill:#fff9cc;stroke:var(--color-text-form-secondary-2zuvDp,#687078);stroke-width:0.6px;}/*!sc*/
data-styled.g26[id="sc-kfPtPH"]{content:"cJssHP,"}/*!sc*/
.eREiWo{fill:#fff9cc;stroke:var(--color-text-form-secondary-2zuvDp,#687078);stroke-width:0.6px;}/*!sc*/
data-styled.g27[id="sc-fKVsgm"]{content:"eREiWo,"}/*!sc*/
.hDsuPB{stroke-width:0;stroke:none;fill:#f2f3f3;}/*!sc*/
data-styled.g28[id="sc-bBHwJV"]{content:"hDsuPB,"}/*!sc*/
.fEQOki{font-size:10px;line-height:12.5;stroke:none;}/*!sc*/
data-styled.g29[id="sc-iwjezw"]{content:"fEQOki,"}/*!sc*/
.deECce{stroke:var(--color-border-control-default-31hYZM,#aab7b8);stroke-width:1px;fill:var(--color-background-container-content-1xRjOR,#ffffff);opacity:0.5;}/*!sc*/
.node &gt; .new-look-state-node.has-errors &gt; .bounding-box &gt; .sc-giYgFv{stroke:var(--color-border-status-error-31wSg2,#d13212);fill:var(--color-background-status-error-3cOAi7,#fdf3f1);}/*!sc*/
.selected &gt; .node &gt; .new-look-state-node &gt; .bounding-box &gt; .sc-giYgFv{stroke:var(--color-border-status-info-1Avj4-,#0073bb);fill:var(--color-background-status-info-2lIPTJ,#f1faff);}/*!sc*/
.selected &gt; .node &gt; .new-look-state-node.has-errors &gt; .bounding-box &gt; .sc-giYgFv{stroke:var(--color-border-status-error-31wSg2,#d13212);fill:#fde0da;}/*!sc*/
data-styled.g33[id="sc-giYgFv"]{content:"deECce,"}/*!sc*/
</style><style>
.new-look-state-node &gt; rect:first-of-type {
  stroke: #687078;
  stroke-width: 1px;
  fill: #FFFFFF;
}

.new-look-state-node .error-icon circle {
 stroke-linejoin: round;
}

.new-look-state-node .error-icon circle, .new-look-state-node .error-icon path {
 stroke: var(--color-border-status-error-31wSg2, #d13212);
 fill: none;
 stroke-width: 2px;
}

.new-look-state-node.has-errors &gt; rect:first-of-type {
 stroke: var(--color-border-status-error-31wSg2, #d13212);
 fill: var(--color-background-status-error-3cOAi7, #fdf3f1);
}

.new-look-state-node .handle path {
  stroke: var(--color-border-dropdown-item-hover-9Qud2b, #879596);
  stroke-width: 1px;
  fill: none;
}

.new-look-state-node {
  font-weight: 400;
  font-family: Amazon Ember, Arial, Roboto, Arial, sans-serif;
  text-shadow: none;
}

.new-look-state-node .line1 {
  fill: #687078;
  font-size: 12px;
}

.selected.node &gt; .new-look-state-node &gt; rect,
.selected.node &gt; .new-look-state-node &gt; .new-look-state-node &gt; rect {
  stroke: var(--color-border-status-info-1Avj4-, #0073bb);
  fill: var(--color-background-status-info-2lIPTJ, #f1faff);
  stroke-width: 1px;
}

.selected.node &gt; .new-look-state-node.has-errors &gt; rect,
.selected.node &gt; .new-look-state-node.has-errors &gt; .new-look-state-node &gt; rect {
 stroke: var(--color-border-status-error-31wSg2, #d13212);
 fill: #fde0da;
}

.new-look-graph .drag-source {
  opacity: 0.2;
}

.new-look-graph .edge, .new-look-graph path.starting-connection {
  stroke-width: 1px;
  stroke: var(--color-text-form-secondary-2zuvDp, #687078);
  marker-end: url(#large-arrowhead);
}

.new-look-graph .edge-label {
  cursor: pointer;
}

.new-look-graph .edge-label rect {
  stroke-width: 1px;
  stroke: var(--color-border-control-default-31hYZM, #aab7b8);
  fill: var(--color-background-container-header-2Hjv9p, #fafafa);
}

.new-look-graph .edge-label.selected rect {
  stroke: var(--color-border-status-info-1Avj4-, #0073bb);
  fill: var(--color-background-status-info-2lIPTJ, #f1faff);
  stroke-width: 0.6px;
}



.new-look-graph .edge-label .label {
  fill: var(--color-text-form-secondary-2zuvDp, #687078);
  font-family: Amazon Ember, Arial, Roboto, Arial, sans-serif;
}

/* centering the shape text */
@-moz-document url-prefix() {
  .new-look-graph .shape + text,
  .new-look-graph .edge-label text {
    transform: translateY(3.5px);
  }
}

.new-look-graph .edge path {
  marker-end: url(#large-arrowhead) !important;
}

.new-look-graph .edge.selected path{
  stroke: var(--color-border-status-info-1Avj4-, #0073bb);
  stroke-width: 1.1px;
}

.new-look-graph .edge.dragging-over path, .new-look-graph  g.dragging-over .starting-connection {
  stroke: #5C86FF;
  stroke-width: 2px;
}

.new-look-graph .edge.dragging-over path, .new-look-graph .dragging-over path.starting-connection {
  marker-end: url(#large-highlighted-arrowhead) !important;
}

.new-look-graph .edge.dragging-over .edge-label text {
  fill: #5C86FF;
}

#large-highlighted-arrowhead {
  fill: #5C86FF;
}

#large-highlighted-arrowhead path {
  stroke: none;
}

.new-look-graph .edge.drop-not-supported path, g.drop-not-supported .starting-connection {
  stroke: red;
}

.new-look-graph .edge.drop-not-supported .edge-label text {
  fill: red;
}

.new-look-graph .edge.drop-not-supported path {
  marker-end: url(#large-error-arrowhead) !important;
}

#large-error-arrowhead {
  fill: red;
}


.node.Placeholder.dragging-over rect {
  stroke: var(--color-border-status-info-1Avj4-, #0073bb);
  fill: var(--color-background-status-info-2lIPTJ, #f1faff);
  stroke-width: 2px;
}

.node.Placeholder.dragging-over .label {
  fill: var(--color-text-status-info-2YM3rg, #0073bb);
}

g.Placeholder rect {
  stroke-dasharray: 5 4;
  stroke: var(--color-border-dropdown-item-hover-9Qud2b, #879596);
  fill: var(--color-background-control-default-1CAayK, #ffffff);
  stroke-width: 1px;
}

g.Placeholder .label {
  font-style: italic;
  fill: var(--color-text-input-placeholder-3rku1q, #aab7b8);
}

.node.Placeholder.drop-not-supported rect {
  stroke: red;
}

.node.Placeholder.drop-not-supported .label {
  fill: red;
}
</style><style>.line2 { font-size: 14px }</style></svg>